# xmcd
#
# Track frame offsets: 
#        150
#        19368
#        32148
#        43011
#        60023
#        75654
#        96100
#        112452
#        125354
#        137956
#        154204
#        168081
#        190103
#        210235
#        220030
#        229256
#        248982
#
# Disc length: 3568 seconds
#
# Revision: 0
# Processed by: cddbd v1.5.2PL0 Copyright (c) Steve Scherf et al.
# Submitted via: ExactAudioCopy v0.99pb5
#
DISCID=e60dee11
DTITLE=Various Artist - Country - Gold Metal Box - CD 3
DYEAR=2009
DGENRE=Country Pop
TTITLE0=Kris Kristofferson - Me and Bobby McGee
TTITLE1=Alabama - I'm in a hurry (and don't know why)
TTITLE2=Jim Reeves - He'll have to go
TTITLE3=Andy Griggs - This I gotta see
TTITLE4=Ricky Van Shelton - I am a simple man
TTITLE5=Tracy Byrd - Put your hand in mine
TTITLE6=Charlie Daniels Band - The devil went down to Georgia
TTITLE7=Johnny Horton - North to Alaska
TTITLE8=New Riders Of The Purple Sage - Panama Red
TTITLE9=Waylon Jennings - Honky tonk heroes
TTITLE10=Dolly Parton - Coat of many colors
TTITLE11=Atlanta Rhythm Section - Alien
TTITLE12=J.D. Souther - Trouble in paradise
TTITLE13=Jim Reeves - Is this me?
TTITLE14=Chet Atkins - Yakety axe
TTITLE15=Marty Robbins - El Paso
TTITLE16=Rodney Crowell - Oh King Richard
EXTD=
EXTT0=
EXTT1=
EXTT2=
EXTT3=
EXTT4=
EXTT5=
EXTT6=
EXTT7=
EXTT8=
EXTT9=
EXTT10=
EXTT11=
EXTT12=
EXTT13=
EXTT14=
EXTT15=
EXTT16=
PLAYORDER=
